<?xml version="1.0" encoding="UTF-8"?>
<svg xmlns="http://www.w3.org/2000/svg" viewBox="0 0 128 128" width="128" height="128">
  <g id="character">
    <path d="M 61.00 108.56 L 60.89 109.98 L 60.55 111.35 L 60.00 112.64 L 59.25 113.81 L 58.32 114.81 L 57.25 115.63 L 56.07 116.23 L 54.80 116.60 L 53.50 116.72 L 52.20 116.60 L 50.93 116.23 L 49.75 115.63 L 48.68 114.81 L 47.75 113.81 L 47.00 112.64 L 46.45 111.35 L 46.11 109.98 L 46.00 108.56 L 46.11 107.14 L 46.45 105.77 L 47.00 104.48 L 47.75 103.31 L 48.68 102.31 L 49.75 101.49 L 50.93 100.89 L 52.20 100.52 L 53.50 100.40 L 54.80 100.52 L 56.07 100.89 L 57.25 101.49 L 58.32 102.31 L 59.25 103.31 L 60.00 104.48 L 60.55 105.77 L 60.89 107.14 L 61.00 108.56 Z" fill="#78350f" />
    <path d="M 61.00 108.56 L 60.89 109.98 L 60.55 111.35 L 60.00 112.64 L 59.25 113.81 L 58.32 114.81 L 57.25 115.63 L 56.07 116.23 L 54.80 116.60 L 53.50 116.72 L 52.20 116.60 L 50.93 116.23 L 49.75 115.63 L 48.68 114.81 L 47.75 113.81 L 47.00 112.64 L 46.45 111.35 L 46.11 109.98 L 46.00 108.56 L 46.11 107.14 L 46.45 105.77 L 47.00 104.48 L 47.75 103.31 L 48.68 102.31 L 49.75 101.49 L 50.93 100.89 L 52.20 100.52 L 53.50 100.40 L 54.80 100.52 L 56.07 100.89 L 57.25 101.49 L 58.32 102.31 L 59.25 103.31 L 60.00 104.48 L 60.55 105.77 L 60.89 107.14 L 61.00 108.56 Z" fill="none" stroke="rgba(0, 0, 0, 0.6)" stroke-width="1.20" />
    <path d="M 59.50 86.80 L 50.50 86.80 L 49.60 103.80 L 57.40 103.80 Z" fill="#2563eb" />
    <path d="M 59.50 86.80 L 50.50 86.80 L 49.60 103.80 L 57.40 103.80 Z" fill="none" stroke="rgba(0, 0, 0, 0.6)" stroke-width="1.20" />
    <path d="M 83.80 108.56 L 83.67 109.98 L 83.29 111.35 L 82.67 112.64 L 81.83 113.81 L 80.80 114.81 L 79.60 115.63 L 78.27 116.23 L 76.86 116.60 L 75.40 116.72 L 73.94 116.60 L 72.53 116.23 L 71.20 115.63 L 70.00 114.81 L 68.97 113.81 L 68.13 112.64 L 67.51 111.35 L 67.13 109.98 L 67.00 108.56 L 67.13 107.14 L 67.51 105.77 L 68.13 104.48 L 68.97 103.31 L 70.00 102.31 L 71.20 101.49 L 72.53 100.89 L 73.94 100.52 L 75.40 100.40 L 76.86 100.52 L 78.27 100.89 L 79.60 101.49 L 80.80 102.31 L 81.83 103.31 L 82.67 104.48 L 83.29 105.77 L 83.67 107.14 L 83.80 108.56 Z" fill="#78350f" />
    <path d="M 83.80 108.56 L 83.67 109.98 L 83.29 111.35 L 82.67 112.64 L 81.83 113.81 L 80.80 114.81 L 79.60 115.63 L 78.27 116.23 L 76.86 116.60 L 75.40 116.72 L 73.94 116.60 L 72.53 116.23 L 71.20 115.63 L 70.00 114.81 L 68.97 113.81 L 68.13 112.64 L 67.51 111.35 L 67.13 109.98 L 67.00 108.56 L 67.13 107.14 L 67.51 105.77 L 68.13 104.48 L 68.97 103.31 L 70.00 102.31 L 71.20 101.49 L 72.53 100.89 L 73.94 100.52 L 75.40 100.40 L 76.86 100.52 L 78.27 100.89 L 79.60 101.49 L 80.80 102.31 L 81.83 103.31 L 82.67 104.48 L 83.29 105.77 L 83.67 107.14 L 83.80 108.56 Z" fill="none" stroke="rgba(0, 0, 0, 0.6)" stroke-width="1.20" />
    <path d="M 62.50 86.80 L 74.50 86.80 L 78.40 103.80 L 69.40 103.80 Z" fill="#2563eb" />
    <path d="M 62.50 86.80 L 74.50 86.80 L 78.40 103.80 L 69.40 103.80 Z" fill="none" stroke="rgba(0, 0, 0, 0.6)" stroke-width="1.20" />
    <path d="M 53.50 69.80 L 74.50 69.80 L 74.50 88.16 L 53.50 88.16 Z" fill="#dc2626" />
    <path d="M 53.50 69.80 L 74.50 69.80 L 74.50 88.16 L 53.50 88.16 Z" fill="none" stroke="rgba(0, 0, 0, 0.6)" stroke-width="1.20" />
    <path d="M 55.60 71.84 L 72.40 71.84 L 73.60 88.16 L 54.40 88.16 Z" fill="#2563eb" />
    <path d="M 55.60 71.84 L 72.40 71.84 L 73.60 88.16 L 54.40 88.16 Z" fill="none" stroke="rgba(0, 0, 0, 0.6)" stroke-width="1.20" />
    <path d="M 71.80 76.60 L 71.76 77.02 L 71.66 77.42 L 71.48 77.80 L 71.24 78.14 L 70.94 78.44 L 70.60 78.68 L 70.22 78.86 L 69.82 78.96 L 69.40 79.00 L 68.98 78.96 L 68.58 78.86 L 68.20 78.68 L 67.86 78.44 L 67.56 78.14 L 67.32 77.80 L 67.14 77.42 L 67.04 77.02 L 67.00 76.60 L 67.04 76.18 L 67.14 75.78 L 67.32 75.40 L 67.56 75.06 L 67.86 74.76 L 68.20 74.52 L 68.58 74.34 L 68.98 74.24 L 69.40 74.20 L 69.82 74.24 L 70.22 74.34 L 70.60 74.52 L 70.94 74.76 L 71.24 75.06 L 71.48 75.40 L 71.66 75.78 L 71.76 76.18 L 71.80 76.60 Z" fill="#facc15" />
    <path d="M 55.30 81.36 L 55.23 82.19 L 55.01 83.00 L 54.66 83.76 L 54.18 84.45 L 53.59 85.04 L 52.90 85.52 L 52.14 85.87 L 51.33 86.09 L 50.50 86.16 L 49.67 86.09 L 48.86 85.87 L 48.10 85.52 L 47.41 85.04 L 46.82 84.45 L 46.34 83.76 L 45.99 83.00 L 45.77 82.19 L 45.70 81.36 L 45.77 80.53 L 45.99 79.72 L 46.34 78.96 L 46.82 78.27 L 47.41 77.68 L 48.10 77.20 L 48.86 76.85 L 49.67 76.63 L 50.50 76.56 L 51.33 76.63 L 52.14 76.85 L 52.90 77.20 L 53.59 77.68 L 54.18 78.27 L 54.66 78.96 L 55.01 79.72 L 55.23 80.53 L 55.30 81.36 Z" fill="#f8fafc" />
    <path d="M 55.30 81.36 L 55.23 82.19 L 55.01 83.00 L 54.66 83.76 L 54.18 84.45 L 53.59 85.04 L 52.90 85.52 L 52.14 85.87 L 51.33 86.09 L 50.50 86.16 L 49.67 86.09 L 48.86 85.87 L 48.10 85.52 L 47.41 85.04 L 46.82 84.45 L 46.34 83.76 L 45.99 83.00 L 45.77 82.19 L 45.70 81.36 L 45.77 80.53 L 45.99 79.72 L 46.34 78.96 L 46.82 78.27 L 47.41 77.68 L 48.10 77.20 L 48.86 76.85 L 49.67 76.63 L 50.50 76.56 L 51.33 76.63 L 52.14 76.85 L 52.90 77.20 L 53.59 77.68 L 54.18 78.27 L 54.66 78.96 L 55.01 79.72 L 55.23 80.53 L 55.30 81.36 Z" fill="none" stroke="rgba(0, 0, 0, 0.6)" stroke-width="1.20" />
    <path d="M 85.00 81.36 L 84.92 82.30 L 84.67 83.21 L 84.28 84.06 L 83.74 84.83 L 83.07 85.50 L 82.30 86.04 L 81.45 86.43 L 80.54 86.68 L 79.60 86.76 L 78.66 86.68 L 77.75 86.43 L 76.90 86.04 L 76.13 85.50 L 75.46 84.83 L 74.92 84.06 L 74.53 83.21 L 74.28 82.30 L 74.20 81.36 L 74.28 80.42 L 74.53 79.51 L 74.92 78.66 L 75.46 77.89 L 76.13 77.22 L 76.90 76.68 L 77.75 76.29 L 78.66 76.04 L 79.60 75.96 L 80.54 76.04 L 81.45 76.29 L 82.30 76.68 L 83.07 77.22 L 83.74 77.89 L 84.28 78.66 L 84.67 79.51 L 84.92 80.42 L 85.00 81.36 Z" fill="#f8fafc" />
    <path d="M 85.00 81.36 L 84.92 82.30 L 84.67 83.21 L 84.28 84.06 L 83.74 84.83 L 83.07 85.50 L 82.30 86.04 L 81.45 86.43 L 80.54 86.68 L 79.60 86.76 L 78.66 86.68 L 77.75 86.43 L 76.90 86.04 L 76.13 85.50 L 75.46 84.83 L 74.92 84.06 L 74.53 83.21 L 74.28 82.30 L 74.20 81.36 L 74.28 80.42 L 74.53 79.51 L 74.92 78.66 L 75.46 77.89 L 76.13 77.22 L 76.90 76.68 L 77.75 76.29 L 78.66 76.04 L 79.60 75.96 L 80.54 76.04 L 81.45 76.29 L 82.30 76.68 L 83.07 77.22 L 83.74 77.89 L 84.28 78.66 L 84.67 79.51 L 84.92 80.42 L 85.00 81.36 Z" fill="none" stroke="rgba(0, 0, 0, 0.6)" stroke-width="1.20" />
    <path d="M 78.10 62.32 L 77.94 64.92 L 77.47 67.44 L 76.69 69.80 L 75.64 71.94 L 74.35 73.78 L 72.85 75.28 L 71.19 76.38 L 69.42 77.05 L 67.60 77.28 L 65.78 77.05 L 64.01 76.38 L 62.35 75.28 L 60.85 73.78 L 59.56 71.94 L 58.51 69.80 L 57.73 67.44 L 57.26 64.92 L 57.10 62.32 L 57.26 59.72 L 57.73 57.20 L 58.51 54.84 L 59.56 52.70 L 60.85 50.86 L 62.35 49.36 L 64.01 48.26 L 65.78 47.59 L 67.60 47.36 L 69.42 47.59 L 71.19 48.26 L 72.85 49.36 L 74.35 50.86 L 75.64 52.70 L 76.69 54.84 L 77.47 57.20 L 77.94 59.72 L 78.10 62.32 Z" fill="#fed7aa" />
    <path d="M 83.20 63.68 L 83.12 65.33 L 82.87 66.94 L 82.48 68.44 L 81.94 69.80 L 81.27 70.97 L 80.50 71.92 L 79.65 72.63 L 78.74 73.06 L 77.80 73.20 L 76.86 73.06 L 75.95 72.63 L 75.10 71.92 L 74.33 70.97 L 73.66 69.80 L 73.12 68.44 L 72.73 66.94 L 72.48 65.33 L 72.40 63.68 L 72.48 62.03 L 72.73 60.42 L 73.12 58.92 L 73.66 57.56 L 74.33 56.39 L 75.10 55.44 L 75.95 54.73 L 76.86 54.30 L 77.80 54.16 L 78.74 54.30 L 79.65 54.73 L 80.50 55.44 L 81.27 56.39 L 81.94 57.56 L 82.48 58.92 L 82.87 60.42 L 83.12 62.03 L 83.20 63.68 Z" fill="#fed7aa" />
    <path d="M 83.20 63.68 L 83.12 65.33 L 82.87 66.94 L 82.48 68.44 L 81.94 69.80 L 81.27 70.97 L 80.50 71.92 L 79.65 72.63 L 78.74 73.06 L 77.80 73.20 L 76.86 73.06 L 75.95 72.63 L 75.10 71.92 L 74.33 70.97 L 73.66 69.80 L 73.12 68.44 L 72.73 66.94 L 72.48 65.33 L 72.40 63.68 L 72.48 62.03 L 72.73 60.42 L 73.12 58.92 L 73.66 57.56 L 74.33 56.39 L 75.10 55.44 L 75.95 54.73 L 76.86 54.30 L 77.80 54.16 L 78.74 54.30 L 79.65 54.73 L 80.50 55.44 L 81.27 56.39 L 81.94 57.56 L 82.48 58.92 L 82.87 60.42 L 83.12 62.03 L 83.20 63.68 Z" fill="none" stroke="rgba(0, 0, 0, 0.6)" stroke-width="1.20" />
    <path d="M 69.40 67.76 L 82.60 67.76 L 84.40 71.84 L 73.60 71.84 Z" fill="#1c1917" />
    <path d="M 74.80 59.60 L 74.76 61.02 L 74.66 62.39 L 74.48 63.68 L 74.24 64.85 L 73.94 65.85 L 73.60 66.67 L 73.22 67.27 L 72.82 67.64 L 72.40 67.76 L 71.98 67.64 L 71.58 67.27 L 71.20 66.67 L 70.86 65.85 L 70.56 64.85 L 70.32 63.68 L 70.14 62.39 L 70.04 61.02 L 70.00 59.60 L 70.04 58.18 L 70.14 56.81 L 70.32 55.52 L 70.56 54.35 L 70.86 53.35 L 71.20 52.53 L 71.58 51.93 L 71.98 51.56 L 72.40 51.44 L 72.82 51.56 L 73.22 51.93 L 73.60 52.53 L 73.94 53.35 L 74.24 54.35 L 74.48 55.52 L 74.66 56.81 L 74.76 58.18 L 74.80 59.60 Z" fill="#2563eb" />
    <path d="M 74.20 58.24 L 74.19 58.71 L 74.15 59.17 L 74.08 59.60 L 73.99 59.99 L 73.88 60.32 L 73.75 60.60 L 73.61 60.80 L 73.46 60.92 L 73.30 60.96 L 73.14 60.92 L 72.99 60.80 L 72.85 60.60 L 72.72 60.32 L 72.61 59.99 L 72.52 59.60 L 72.45 59.17 L 72.41 58.71 L 72.40 58.24 L 72.41 57.77 L 72.45 57.31 L 72.52 56.88 L 72.61 56.49 L 72.72 56.16 L 72.85 55.88 L 72.99 55.68 L 73.14 55.56 L 73.30 55.52 L 73.46 55.56 L 73.61 55.68 L 73.75 55.88 L 73.88 56.16 L 73.99 56.49 L 74.08 56.88 L 74.15 57.31 L 74.19 57.77 L 74.20 58.24 Z" fill="#ffffff" />
    <path d="M 55.60 59.60 L 54.40 46.00 L 68.50 42.60 L 79.60 51.44 L 71.50 56.20 Z" fill="#dc2626" />
    <path d="M 55.60 59.60 L 54.40 46.00 L 68.50 42.60 L 79.60 51.44 L 71.50 56.20 Z" fill="none" stroke="rgba(0, 0, 0, 0.6)" stroke-width="1.20" />
    <path d="M 69.40 54.16 L 85.60 56.88 L 79.60 59.60 Z" fill="#dc2626" />
    <path d="M 69.40 54.16 L 85.60 56.88 L 79.60 59.60 Z" fill="none" stroke="rgba(0, 0, 0, 0.6)" stroke-width="1.20" />
  </g>
</svg>
