<?xml version="1.0" encoding="UTF-8"?>
<svg xmlns="http://www.w3.org/2000/svg" viewBox="0 0 128 128" width="128" height="128">
  <g id="character">
    <path d="M 51.40 95.12 L 44.96 88.04 L 43.84 92.76 L 50.00 99.84 Z" fill="#854d0e" />
    <path d="M 51.40 95.12 L 44.96 88.04 L 43.84 92.76 L 50.00 99.84 Z" fill="none" stroke="rgba(0, 0, 0, 0.6)" stroke-width="1.20" />
    <path d="M 44.96 88.04 L 49.44 76.24 L 42.72 77.42 L 46.64 63.85 L 37.40 47.92 L 28.16 62.08 L 38.24 69.75 L 43.84 92.76 Z" fill="#facc15" />
    <path d="M 44.96 88.04 L 49.44 76.24 L 42.72 77.42 L 46.64 63.85 L 37.40 47.92 L 28.16 62.08 L 38.24 69.75 L 43.84 92.76 Z" fill="none" stroke="rgba(0, 0, 0, 0.6)" stroke-width="1.20" />
    <path d="M 58.96 58.54 L 63.44 56.18 L 58.40 43.20 L 55.60 44.38 Z" fill="#facc15" />
    <path d="M 58.96 58.54 L 63.44 56.18 L 58.40 43.20 L 55.60 44.38 Z" fill="none" stroke="rgba(0, 0, 0, 0.6)" stroke-width="1.20" />
    <path d="M 55.60 44.38 L 58.40 43.20 L 52.80 31.40 Z" fill="#1e1e24" />
    <path d="M 55.60 44.38 L 58.40 43.20 L 52.80 31.40 Z" fill="none" stroke="rgba(0, 0, 0, 0.6)" stroke-width="1.20" />
    <path d="M 52.80 114.00 L 45.52 97.48 L 46.64 77.42 L 52.24 64.44 L 58.40 57.36 L 67.36 53.82 L 80.24 63.26 L 88.08 78.60 L 82.48 86.86 L 85.84 96.30 L 76.88 114.00 Z" fill="#facc15" />
    <path d="M 52.80 114.00 L 45.52 97.48 L 46.64 77.42 L 52.24 64.44 L 58.40 57.36 L 67.36 53.82 L 80.24 63.26 L 88.08 78.60 L 82.48 86.86 L 85.84 96.30 L 76.88 114.00 Z" fill="none" stroke="rgba(0, 0, 0, 0.6)" stroke-width="1.20" />
    <path d="M 47.20 72.70 L 57.84 75.06 L 57.28 79.78 L 46.64 77.42 Z" fill="#854d0e" />
    <path d="M 45.80 85.68 L 58.40 88.04 L 57.84 92.76 L 45.52 90.40 Z" fill="#854d0e" />
    <path d="M 67.92 55.00 L 74.08 60.90 L 81.92 44.38 L 77.44 42.02 Z" fill="#facc15" />
    <path d="M 67.92 55.00 L 74.08 60.90 L 81.92 44.38 L 77.44 42.02 Z" fill="none" stroke="rgba(0, 0, 0, 0.6)" stroke-width="1.20" />
    <path d="M 77.44 42.02 L 81.92 44.38 L 88.64 29.04 Z" fill="#1e1e24" />
    <path d="M 77.44 42.02 L 81.92 44.38 L 88.64 29.04 Z" fill="none" stroke="rgba(0, 0, 0, 0.6)" stroke-width="1.20" />
    <path d="M 81.92 82.14 L 81.84 83.02 L 81.62 83.86 L 81.24 84.66 L 80.74 85.38 L 80.12 86.00 L 79.40 86.50 L 78.60 86.88 L 77.76 87.10 L 76.88 87.18 L 76.00 87.10 L 75.16 86.88 L 74.36 86.50 L 73.64 86.00 L 73.02 85.38 L 72.52 84.66 L 72.14 83.86 L 71.92 83.02 L 71.84 82.14 L 71.92 81.26 L 72.14 80.42 L 72.52 79.62 L 73.02 78.90 L 73.64 78.28 L 74.36 77.78 L 75.16 77.40 L 76.00 77.18 L 76.88 77.10 L 77.76 77.18 L 78.60 77.40 L 79.40 77.78 L 80.12 78.28 L 80.74 78.90 L 81.24 79.62 L 81.62 80.42 L 81.84 81.26 L 81.92 82.14 Z" fill="#ef4444" />
    <path d="M 81.92 82.14 L 81.84 83.02 L 81.62 83.86 L 81.24 84.66 L 80.74 85.38 L 80.12 86.00 L 79.40 86.50 L 78.60 86.88 L 77.76 87.10 L 76.88 87.18 L 76.00 87.10 L 75.16 86.88 L 74.36 86.50 L 73.64 86.00 L 73.02 85.38 L 72.52 84.66 L 72.14 83.86 L 71.92 83.02 L 71.84 82.14 L 71.92 81.26 L 72.14 80.42 L 72.52 79.62 L 73.02 78.90 L 73.64 78.28 L 74.36 77.78 L 75.16 77.40 L 76.00 77.18 L 76.88 77.10 L 77.76 77.18 L 78.60 77.40 L 79.40 77.78 L 80.12 78.28 L 80.74 78.90 L 81.24 79.62 L 81.62 80.42 L 81.84 81.26 L 81.92 82.14 Z" fill="none" stroke="rgba(0, 0, 0, 0.6)" stroke-width="0.80" />
    <path d="M 79.40 70.34 L 79.35 70.97 L 79.21 71.58 L 78.99 72.16 L 78.68 72.68 L 78.30 73.13 L 77.86 73.49 L 77.37 73.76 L 76.85 73.92 L 76.32 73.98 L 75.79 73.92 L 75.27 73.76 L 74.78 73.49 L 74.34 73.13 L 73.96 72.68 L 73.65 72.16 L 73.43 71.58 L 73.29 70.97 L 73.24 70.34 L 73.29 69.71 L 73.43 69.10 L 73.65 68.52 L 73.96 68.00 L 74.34 67.55 L 74.78 67.19 L 75.27 66.92 L 75.79 66.76 L 76.32 66.70 L 76.85 66.76 L 77.37 66.92 L 77.86 67.19 L 78.30 67.55 L 78.68 68.00 L 78.99 68.52 L 79.21 69.10 L 79.35 69.71 L 79.40 70.34 Z" fill="#18181b" />
    <path d="M 78.56 68.57 L 78.54 68.76 L 78.49 68.95 L 78.41 69.13 L 78.30 69.29 L 78.16 69.43 L 78.00 69.54 L 77.82 69.62 L 77.63 69.67 L 77.44 69.69 L 77.25 69.67 L 77.06 69.62 L 76.88 69.54 L 76.72 69.43 L 76.58 69.29 L 76.47 69.13 L 76.39 68.95 L 76.34 68.76 L 76.32 68.57 L 76.34 68.38 L 76.39 68.19 L 76.47 68.01 L 76.58 67.85 L 76.72 67.71 L 76.88 67.60 L 77.06 67.52 L 77.25 67.47 L 77.44 67.45 L 77.63 67.47 L 77.82 67.52 L 78.00 67.60 L 78.16 67.71 L 78.30 67.85 L 78.41 68.01 L 78.49 68.19 L 78.54 68.38 L 78.56 68.57 Z" fill="#ffffff" />
    <path d="M 86.96 77.42 L 85.84 78.60 L 85.84 76.24 Z" fill="#18181b" />
    <path d="M 81.92 82.14 Q 83.60 84.50 84.72 82.14" fill="none" stroke="#854d0e" stroke-width="1.00" />
  </g>
</svg>
